<svg xmlns="http://www.w3.org/2000/svg" viewBox="0 0 100 100"><defs><linearGradient id="b" x1="0" x2="1" y1="0" y2="1"><stop stop-color="#2E6D5C"/><stop offset="1" stop-color="#0B2C25"/></linearGradient><linearGradient id="g" x1="0" x2="1" y1="0" y2="1"><stop stop-color="#F8E3A0"/><stop offset="1" stop-color="#D4A843"/></linearGradient></defs><rect x="8" y="8" width="84" height="84" rx="25" fill="url(#b)"/><path d="M50 15 59 35 80 24 69 45 88 50 69 55 80 76 59 65 50 85 41 65 20 76 31 55 12 50 31 45 20 24 41 35Z" fill="none" stroke="url(#g)" stroke-width="4"/><path d="M28 52c13-25 39-36 58 0M72 48c-13 25-39 36-58 0" fill="none" stroke="#F8E3A0" stroke-width="7" stroke-linecap="round"/><circle cx="50" cy="50" r="7" fill="#fff"/></svg>
