<svg xmlns="http://www.w3.org/2000/svg" viewBox="0 0 512 512"><defs><linearGradient id="b" x1="80" y1="50" x2="430" y2="460"><stop stop-color="#2E6D5C"/><stop offset="1" stop-color="#0B2C25"/></linearGradient><linearGradient id="g" x1="110" y1="90" x2="400" y2="410"><stop stop-color="#F8E3A0"/><stop offset=".58" stop-color="#D4A843"/><stop offset="1" stop-color="#A8791D"/></linearGradient></defs><rect x="42" y="42" width="428" height="428" rx="122" fill="url(#b)"/><path d="M256 78 300 168 398 114 344 212 434 256 344 300 398 398 300 344 256 434 212 344 114 398 168 300 78 256 168 212 114 114 212 168Z" fill="none" stroke="url(#g)" stroke-width="14" stroke-linejoin="round"/><path d="M151 264c32-62 95-95 153-72 31 12 53 38 65 72M361 248c-32 62-95 95-153 72-31-12-53-38-65-72" fill="none" stroke="#F8E3A0" stroke-width="24" stroke-linecap="round"/><circle cx="256" cy="256" r="28" fill="#0B2C25" stroke="#fff" stroke-width="10"/></svg>
